{"title":"Big Hero 6 2014 CAM READNFO XVID AC3 ACAB","uid":11470929,"size":1054751812,"categoryP":"video","categoryS":"movies","magnet":"?xt=urn:btih:c3cd731ca287cd80cec8466ec8e36a909891fcde&amp;dn=Big+Hero+6+2014+CAM+READNFO+XVID+AC3+ACAB&amp;tr=udp%3A%2F%2Ftracker.openbittorrent.com%3A80&amp;tr=udp%3A%2F%2Fopen.demonii.com%3A1337&amp;tr=udp%3A%2F%2Ftracker.coppersurfer.tk%3A6969&amp;tr=udp%3A%2F%2Fexodus.desync.com%3A6969","seeders":5,"leechers":0,"uploader":"xxxlavalxxx","files":-1,"time":1416083185,"description":"[IMG]http://i.imgur.com/jDwTIUg.jpg[/IMG]\n &lt;a href=&quot;\nhttp://www.imdb.com/title/tt2245084/&quot; rel=&quot;nofollow&quot; target=&quot;_NEW&quot;&gt;\nhttp://www.imdb.com/title/tt2245084/&lt;/a&gt;\n\n\nThe special bond that develops between plus-sized inflatable robot Baymax, and prodigy Hiro Hamada, who team up with a group of friends to form a band of high-tech heroes.\n\nDirectors: Don Hall, Chris Williams\nWriters: Jordan Roberts (screenplay), Daniel Gerson (screenplay)\nStars: Ryan Potter, Scott Adsit, Jamie Chung \nGenres: Animation,Action,Adventure,Comedy,Family,Sci-Fi\nCountry: USA\nLanguage: English\n\n\nFormat: AVI\nFormat/Info: Audio Video Interleave\nFile size: 991 MiB\nDuration: 1h 30mn\nOverall bit rate: 1 523 Kbps\nWriting library: VirtualDub build 30091/release\n\nVideo\nID: 0\nFormat: MPEG-4 Visual\nFormat profile: Advanced Simple@L5\nFormat settings, BVOP: 2\nFormat settings, QPel: No\nFormat settings, GMC: No warppoints\nFormat settings, Matrix: Default (H.263)\nMuxing mode: Packed bitstream\nCodec ID: XVID\nCodec ID/Hint: XviD\nDuration: 1h 30mn\nBit rate: 1 249 Kbps\nWidth: 720 pixels\nHeight: 304 pixels\nDisplay aspect ratio: 2.35:1\nFrame rate: 59.940 fps\nColor space: YUV\nChroma subsampling: 4:2:0\nBit depth: 8 bits\nScan type: Progressive\nCompression mode: Lossy\nBits/(Pixel*Frame): 0.095\nStream size: 813 MiB (82%)\nWriting library: XviD 66\n\nAudio\nID: 1\nFormat: AC-3\nFormat/Info: Audio Coding 3\nMode extension: CM (complete main)\nFormat settings, Endianness: Big\nCodec ID: 2000\nDuration: 1h 30mn\nBit rate mode: Constant\nBit rate: 256 Kbps\nChannel(s): 2 channels\nChannel positions: Front: L R\nSampling rate: 48.0 KHz\nBit depth: 16 bits\nCompression mode: Lossy\nStream size: 167 MiB (17%)\nAlignment: Aligned on interleaves\nInterleave, duration: 32 ms (1.92 video frames)\nInterleave, preload duration: 512 ms\n\n &lt;a href=&quot;\nhttp://i.imgur.com/hx0HQTU.png&quot; rel=&quot;nofollow&quot; target=&quot;_NEW&quot;&gt;\nhttp://i.imgur.com/hx0HQTU.png&lt;/a&gt; &lt;a href=&quot;\nhttp://i.imgur.com/w3ZC9cf.png&quot; rel=&quot;nofollow&quot; target=&quot;_NEW&quot;&gt;\nhttp://i.imgur.com/w3ZC9cf.png&lt;/a&gt; &lt;a href=&quot;\nhttp://i.imgur.com/OIs2ACx.png&quot; rel=&quot;nofollow&quot; target=&quot;_NEW&quot;&gt;\nhttp://i.imgur.com/OIs2ACx.png&lt;/a&gt; &lt;a href=&quot;\nhttp://i.imgur.com/GdTzjfz.png&quot; rel=&quot;nofollow&quot; target=&quot;_NEW&quot;&gt;\nhttp://i.imgur.com/GdTzjfz.png&lt;/a&gt;","torrent":{"xt":"urn:btih:c3cd731ca287cd80cec8466ec8e36a909891fcde","amp;dn":"Big+Hero+6+2014+CAM+READNFO+XVID+AC3+ACAB","amp;tr":["udp%3A%2F%2Ftracker.openbittorrent.com%3A80","udp%3A%2F%2Fopen.demonii.com%3A1337","udp%3A%2F%2Ftracker.coppersurfer.tk%3A6969","udp%3A%2F%2Fexodus.desync.com%3A6969"],"infoHash":"c3cd731ca287cd80cec8466ec8e36a909891fcde","infoHashBuffer":{"type":"Buffer","data":[195,205,115,28,162,135,205,128,206,200,70,110,200,227,106,144,152,145,252,222]},"announce":[],"urlList":[]}}